<svg enable-background="new 0 0 24 24" height="512" viewBox="0 0 24 24" width="512" xmlns="http://www.w3.org/2000/svg"><path d="m21.5 24h-19c-1.378 0-2.5-1.121-2.5-2.5v-19c0-1.379 1.122-2.5 2.5-2.5h19c1.378 0 2.5 1.121 2.5 2.5v19c0 1.379-1.122 2.5-2.5 2.5zm-19-23c-.827 0-1.5.673-1.5 1.5v19c0 .827.673 1.5 1.5 1.5h19c.827 0 1.5-.673 1.5-1.5v-19c0-.827-.673-1.5-1.5-1.5z"/><path d="m7.5 19c-.048 0-.098-.007-.147-.022-.264-.081-.412-.36-.331-.625l4-13c.082-.263.362-.414.625-.33.264.081.412.36.331.625l-4 13c-.066.214-.264.352-.478.352z"/><path d="m12.5 19c-.048 0-.098-.007-.147-.022-.264-.081-.412-.36-.331-.625l4-13c.082-.263.362-.414.625-.33.264.081.412.36.331.625l-4 13c-.066.214-.264.352-.478.352z"/></svg>